<svg width="2547" height="2547" viewBox="0 0 2547 2547" fill="none" xmlns="http://www.w3.org/2000/svg">
<path d="M718.647 1809V1479.33H764.638V1776.03H848.887V1809H718.647ZM880.413 1809V1479.33H1008.21V1513.52H926.404V1622.59H992.745V1655.15H926.404V1776.03H1009.03V1809H880.413ZM1128.78 1812.66C1105.44 1812.66 1087.26 1807.78 1074.24 1798.01C1061.49 1788.24 1052.53 1775.08 1047.38 1758.53C1042.49 1741.98 1040.05 1723.53 1040.05 1703.18V1586.78C1040.05 1564.53 1042.49 1545.13 1047.38 1528.58C1052.53 1512.03 1061.49 1499.27 1074.24 1490.32C1087.26 1481.09 1105.44 1476.48 1128.78 1476.48C1149.4 1476.48 1165.68 1480.28 1177.62 1487.88C1189.83 1495.47 1198.51 1506.33 1203.66 1520.44C1209.09 1534.55 1211.8 1551.5 1211.8 1571.31V1597.36H1168.25V1574.16C1168.25 1561.95 1167.58 1551.23 1166.22 1542.01C1165.13 1532.51 1161.88 1525.19 1156.45 1520.03C1151.03 1514.87 1141.94 1512.3 1129.18 1512.3C1116.16 1512.3 1106.66 1515.15 1100.69 1520.84C1094.72 1526.27 1090.79 1534.14 1088.89 1544.45C1087.26 1554.49 1086.45 1566.29 1086.45 1579.86V1710.51C1086.45 1727.06 1087.8 1740.22 1090.52 1749.98C1093.23 1759.48 1097.71 1766.26 1103.95 1770.33C1110.19 1774.4 1118.6 1776.44 1129.18 1776.44C1141.66 1776.44 1150.62 1773.73 1156.04 1768.3C1161.47 1762.6 1164.86 1754.87 1166.22 1745.1C1167.58 1735.33 1168.25 1723.94 1168.25 1710.91V1686.49H1211.8V1710.91C1211.8 1730.99 1209.36 1748.76 1204.48 1764.23C1199.59 1779.42 1191.18 1791.36 1179.24 1800.05C1167.31 1808.46 1150.48 1812.66 1128.78 1812.66ZM1255.62 1809V1479.33H1321.96C1343.94 1479.33 1362.11 1482.31 1376.5 1488.28C1390.88 1493.98 1401.46 1503.34 1408.24 1516.37C1415.3 1529.12 1418.82 1545.94 1418.82 1566.83C1418.82 1579.59 1417.47 1591.25 1414.75 1601.84C1412.04 1612.15 1407.7 1620.97 1401.73 1628.29C1395.76 1635.35 1387.89 1640.5 1378.12 1643.76L1424.93 1809H1380.57L1337.42 1654.34H1301.61V1809H1255.62ZM1301.61 1621.37H1319.11C1332.13 1621.37 1342.71 1619.74 1350.85 1616.49C1358.99 1613.23 1364.96 1607.67 1368.76 1599.8C1372.56 1591.93 1374.46 1580.94 1374.46 1566.83C1374.46 1547.57 1370.93 1533.73 1363.88 1525.32C1356.82 1516.64 1342.85 1512.3 1321.96 1512.3H1301.61V1621.37ZM1550.92 1812.66C1528.67 1812.66 1510.9 1808.32 1497.6 1799.64C1484.31 1790.96 1474.81 1778.61 1469.11 1762.6C1463.41 1746.32 1460.56 1727.33 1460.56 1705.62V1580.67C1460.56 1558.97 1463.41 1540.38 1469.11 1524.91C1475.08 1509.18 1484.58 1497.24 1497.6 1489.1C1510.9 1480.69 1528.67 1476.48 1550.92 1476.48C1573.17 1476.48 1590.8 1480.69 1603.83 1489.1C1616.85 1497.51 1626.21 1509.45 1631.91 1524.91C1637.88 1540.38 1640.86 1558.97 1640.86 1580.67V1706.03C1640.86 1727.46 1637.88 1746.19 1631.91 1762.19C1626.21 1778.2 1616.85 1790.68 1603.83 1799.64C1590.8 1808.32 1573.17 1812.66 1550.92 1812.66ZM1550.92 1776.44C1563.13 1776.44 1572.35 1774 1578.59 1769.11C1584.83 1763.96 1589.04 1756.9 1591.21 1747.95C1593.38 1738.72 1594.47 1728.01 1594.47 1715.8V1571.31C1594.47 1559.1 1593.38 1548.66 1591.21 1539.97C1589.04 1531.02 1584.83 1524.24 1578.59 1519.62C1572.35 1514.74 1563.13 1512.3 1550.92 1512.3C1538.71 1512.3 1529.35 1514.74 1522.83 1519.62C1516.59 1524.24 1512.39 1531.02 1510.22 1539.97C1508.05 1548.66 1506.96 1559.1 1506.96 1571.31V1715.8C1506.96 1728.01 1508.05 1738.72 1510.22 1747.95C1512.39 1756.9 1516.59 1763.96 1522.83 1769.11C1529.35 1774 1538.71 1776.44 1550.92 1776.44ZM1668.16 1809L1738.16 1479.33H1782.53L1852.94 1809H1809.39L1794.33 1725.97H1727.17L1711.3 1809H1668.16ZM1733.28 1693H1788.22L1760.55 1544.45L1733.28 1693ZM1886.39 1809V1479.33H1952.73C1974.71 1479.33 1992.89 1482.31 2007.27 1488.28C2021.65 1493.98 2032.23 1503.34 2039.01 1516.37C2046.07 1529.12 2049.59 1545.94 2049.59 1566.83C2049.59 1579.59 2048.24 1591.25 2045.52 1601.84C2042.81 1612.15 2038.47 1620.97 2032.5 1628.29C2026.53 1635.35 2018.66 1640.5 2008.89 1643.76L2055.7 1809H2011.34L1968.19 1654.34H1932.38V1809H1886.39ZM1932.38 1621.37H1949.88C1962.9 1621.37 1973.49 1619.74 1981.63 1616.49C1989.77 1613.23 1995.73 1607.67 1999.53 1599.8C2003.33 1591.93 2005.23 1580.94 2005.23 1566.83C2005.23 1547.57 2001.7 1533.73 1994.65 1525.32C1987.59 1516.64 1973.62 1512.3 1952.73 1512.3H1932.38V1621.37ZM2133.66 1809V1513.52H2077.9V1479.33H2233.78V1513.52H2179.65V1809H2133.66Z" fill="#F3911E"/>
<path d="M718.603 1136.34H656.332V1112.33H810.178V1136.34H749.535V1442H718.603V1136.34ZM951.025 1446.07C920.093 1446.07 898.115 1437.25 885.091 1419.61C872.339 1401.98 865.962 1377.02 865.962 1344.73V1207.97C865.962 1175.96 872.474 1151.54 885.498 1134.71C898.522 1117.62 920.365 1109.07 951.025 1109.07C981.143 1109.07 1002.71 1117.62 1015.74 1134.71C1028.76 1151.81 1035.27 1176.23 1035.27 1207.97V1345.13C1035.27 1377.42 1028.9 1402.39 1016.15 1420.02C1003.39 1437.39 981.686 1446.07 951.025 1446.07ZM951.025 1421.24C971.104 1421.24 984.942 1415.41 992.539 1403.74C1000.14 1391.8 1003.94 1374.44 1003.94 1351.65V1202.28C1003.94 1179.48 1000.14 1162.39 992.539 1150.99C985.213 1139.6 971.375 1133.9 951.025 1133.9C930.404 1133.9 916.295 1139.6 908.697 1150.99C901.1 1162.12 897.301 1179.21 897.301 1202.28V1351.65C897.301 1374.71 901.1 1392.07 908.697 1403.74C916.295 1415.41 930.404 1421.24 951.025 1421.24ZM1113.98 1112.33H1144.92V1442H1113.98V1112.33ZM1270.55 1136.34H1208.28V1112.33H1362.12V1136.34H1301.48V1442H1270.55V1136.34ZM1505.41 1446.07C1473.67 1446.07 1451.69 1438.07 1439.48 1422.06C1427.27 1405.78 1421.16 1382.44 1421.16 1352.05V1112.33H1451.28V1352.87C1451.28 1374.57 1455.08 1391.4 1462.68 1403.33C1470.55 1415.27 1484.79 1421.24 1505.41 1421.24C1525.22 1421.24 1539.19 1415.27 1547.33 1403.33C1555.47 1391.12 1559.54 1374.3 1559.54 1352.87V1112.33H1589.26V1352.05C1589.26 1381.9 1582.88 1405.1 1570.13 1421.65C1557.65 1437.93 1536.07 1446.07 1505.41 1446.07ZM1669.89 1112.33H1744.37C1773.94 1112.33 1794.97 1119.52 1807.45 1133.9C1819.93 1148.01 1826.17 1168.77 1826.17 1196.17C1826.17 1217.06 1822.78 1234.29 1816 1247.86C1809.22 1261.43 1797.41 1269.97 1780.59 1273.5L1831.06 1442H1800.94L1752.51 1280.01H1700.82V1442H1669.89V1112.33ZM1742.74 1257.22C1762.55 1257.22 1776.38 1252.34 1784.25 1242.57C1792.12 1232.8 1796.06 1217.34 1796.06 1196.17C1796.06 1174.74 1792.26 1159.27 1784.66 1149.77C1777.33 1140.28 1763.63 1135.53 1743.55 1135.53H1700.82V1257.22H1742.74ZM1904.2 1112.33H2023.45V1136.34H1935.54V1260.07H2007.17V1282.86H1935.54V1418.8H2024.27V1442H1904.2V1112.33ZM2163.23 1446.07C2137.46 1446.07 2117.79 1438.2 2104.22 1422.46C2090.65 1406.46 2082.92 1384.48 2081.02 1356.53L2108.29 1348.39C2110.73 1371.72 2115.89 1389.63 2123.75 1402.11C2131.89 1414.6 2145.19 1420.84 2163.64 1420.84C2194.57 1420.84 2210.04 1404.96 2210.04 1373.22C2210.04 1359.65 2206.78 1347.71 2200.27 1337.4C2194.03 1327.09 2183.85 1315.29 2169.75 1301.99L2111.54 1246.23C2100.96 1236.46 2093.23 1226.29 2088.35 1215.71C2083.73 1204.85 2081.43 1192.92 2081.43 1179.89C2081.43 1157.37 2088.07 1140.01 2101.37 1127.8C2114.94 1115.31 2133.12 1109.07 2155.91 1109.07C2180.33 1109.07 2199.05 1115.59 2212.07 1128.61C2225.1 1141.63 2232.69 1162.93 2234.87 1192.51L2208.41 1199.43C2206.78 1177.18 2202.03 1160.63 2194.17 1149.77C2186.57 1138.92 2173.82 1133.49 2155.91 1133.49C2141.8 1133.49 2130.54 1137.16 2122.13 1144.48C2113.72 1151.81 2109.51 1162.66 2109.51 1177.04C2109.51 1186.27 2111.27 1194.54 2114.8 1201.87C2118.33 1209.2 2124.3 1216.93 2132.71 1225.07L2190.91 1280.01C2205.83 1294.12 2217.5 1308.64 2225.91 1323.56C2234.59 1338.21 2238.94 1354.09 2238.94 1371.18C2238.94 1395.06 2232.02 1413.51 2218.18 1426.53C2204.34 1439.56 2186.03 1446.07 2163.23 1446.07Z" fill="white"/>
<path fill-rule="evenodd" clip-rule="evenodd" d="M760.388 835.251L731.314 806.177L731.006 806L152 1809H198.194L760.388 835.251Z" fill="#F3911E"/>
<path fill-rule="evenodd" clip-rule="evenodd" d="M934.516 1066L710.584 842.069L731.29 806.206L991.084 1066H934.516Z" fill="#D04C14"/>
<path fill-rule="evenodd" clip-rule="evenodd" d="M934.516 1066L710.584 842.069L731.29 806.206L991.084 1066H934.516Z" fill="#F3911E"/>
<path fill-rule="evenodd" clip-rule="evenodd" d="M1139.82 806H731L988.817 1066H1397.32L1139.82 806Z" fill="#F3911E"/>
<path fill-rule="evenodd" clip-rule="evenodd" d="M1598.32 806H1189.82L1447.32 1066H1855.82L1598.32 806Z" fill="#F3911E"/>
<rect x="922.006" y="738" width="111" height="164" fill="#F3911E"/>
</svg>
